<svg xmlns="http://www.w3.org/2000/svg" width="96" height="96" viewBox="0 0 96 96">
  <path id="sketch-brands" d="M12.593,59.9,9,65.236H26.576l1.34-28.007L12.593,59.9ZM84.219,34.936,59.243,32,85.6,63.543,84.219,34.936ZM29.043,71.921l-2.175-4.714H9.175l43.679,56.079Zm.388-6.686H84.588L68.76,46.271,57.029,32.214Zm57.74,1.95-26.005,56.1,43.659-56.079H87.171Zm.757-27.257-1.826-2.7.175,3.707,1.185,24.3H105ZM29.3,45.179,28.4,63.521,54.776,32,29.8,34.936ZM85.171,67.186H28.849L37.083,84.95,57.029,128,85.171,67.186Z" transform="translate(-9 -32)" fill="#8a0bdb"/>
</svg>
